<svg width="16" height="16" viewBox="0 0 16 16" fill="none" xmlns="http://www.w3.org/2000/svg">
<g clip-path="url(#clip0_3_4963)">
<path d="M0.255135 15.7391C0.600228 16.082 1.17209 16.082 1.50732 15.7391L7.81759 9.28566L14.1278 15.7391C14.4631 16.082 15.0448 16.092 15.3801 15.7391C15.7153 15.3861 15.7153 14.8114 15.3801 14.4686L9.06979 8.00506L15.3801 1.55161C15.7153 1.20878 15.7252 0.623929 15.3801 0.28109C15.035 -0.0718323 14.4631 -0.0718323 14.1278 0.28109L7.81759 6.73454L1.50732 0.28109C1.17209 -0.0718323 0.590368 -0.0819158 0.255135 0.28109C-0.0800974 0.634013 -0.0800974 1.20878 0.255135 1.55161L6.5654 8.00506L0.255135 14.4686C-0.0800974 14.8114 -0.0899572 15.3963 0.255135 15.7391Z" fill="#767F8C"/>
</g>
<defs>
<clipPath id="clip0_3_4963">
<rect width="16" height="16" fill="white"/>
</clipPath>
</defs>
</svg>
