<svg width="21" height="20" viewBox="0 0 21 20" fill="none" xmlns="http://www.w3.org/2000/svg">
<g clip-path="url(#clip0_57_9473)">
<path d="M19.9219 9.96094C19.9219 15.4004 15.4102 19.9219 9.96094 19.9219C4.52148 19.9219 0 15.4004 0 9.96094C0 4.51172 4.51172 0 9.95117 0C15.4004 0 19.9219 4.51172 19.9219 9.96094ZM5.75195 5.52734C4.75586 5.52734 4.23828 6.02539 4.23828 7.02148V12.9395C4.23828 13.9355 4.75586 14.4434 5.75195 14.4434H14.1504C15.1562 14.4434 15.6641 13.9258 15.6641 12.9395V7.02148C15.6641 6.02539 15.1562 5.52734 14.1504 5.52734H5.75195ZM12.6562 10.1074L14.7461 12.0117V12.8906C14.7461 13.2812 14.5117 13.5254 14.1113 13.5254H5.79102C5.39062 13.5254 5.15625 13.2812 5.15625 12.8906V12.4512L6.50391 11.3086C6.71875 11.1328 6.95312 11.0352 7.16797 11.0352C7.40234 11.0352 7.64648 11.1328 7.86133 11.3184L8.79883 12.1582L11.1035 10.1074C11.3379 9.90234 11.6016 9.78516 11.8848 9.79492C12.1484 9.78516 12.4316 9.90234 12.6562 10.1074ZM9.0625 8.90625C9.0625 9.57031 8.52539 10.1074 7.87109 10.1074C7.20703 10.1074 6.66992 9.57031 6.66992 8.90625C6.66992 8.25195 7.20703 7.71484 7.87109 7.71484C8.52539 7.71484 9.0625 8.25195 9.0625 8.90625Z" fill="#767F8C"/>
</g>
<defs>
<clipPath id="clip0_57_9473">
<rect width="20.2832" height="19.9316" fill="white"/>
</clipPath>
</defs>
</svg>
