<svg width="18" height="27" viewBox="0 0 18 27" fill="none" xmlns="http://www.w3.org/2000/svg">
<path d="M16.834 10.7617V20.5078C16.834 21.4341 16.5985 22.041 16.2147 22.4202C15.8299 22.8005 15.2116 23.0352 14.2676 23.0352H3.06641C2.12239 23.0352 1.50415 22.8005 1.11925 22.4202C0.735448 22.041 0.5 21.4341 0.5 20.5078V10.7617C0.5 9.83537 0.735448 9.22853 1.11925 8.84932C1.50414 8.46902 2.12238 8.23438 3.06641 8.23438H5.50586V8.80663H3.08594C2.51083 8.80663 1.9863 8.96315 1.60767 9.34538C1.22975 9.7269 1.07227 10.2576 1.07227 10.8496V20.4199C1.07227 21.0119 1.22975 21.5426 1.60766 21.9241C1.98628 22.3064 2.51082 22.4629 3.08594 22.4629H14.2383C14.8096 22.4629 15.3343 22.3058 15.7153 21.9266C16.0968 21.5469 16.2617 21.0166 16.2617 20.4199V10.8496C16.2617 10.2529 16.0968 9.72262 15.7153 9.34288C15.3343 8.96366 14.8096 8.80663 14.2383 8.80663H11.8281V8.23438H14.2676C15.2116 8.23438 15.8299 8.46902 16.2148 8.84932C16.5986 9.22853 16.834 9.83537 16.834 10.7617Z" fill="white" fill-opacity="0.85" stroke="#AEAEB2"/>
<path d="M9.74841 3.28964L8.8318 2.31835L8.88517 3.65279L8.94336 5.10765V15.127C8.94336 15.2488 8.81821 15.3887 8.66211 15.3887C8.51421 15.3887 8.39062 15.2569 8.39062 15.127V5.10766L8.44882 3.6528L8.50161 2.33317L7.58812 3.28697L6.92406 3.98033L6.92403 3.9803L6.91941 3.98525L5.4448 5.56728L5.43944 5.57303L5.43427 5.57895C5.42371 5.59101 5.40261 5.60806 5.36842 5.62227C5.3338 5.63666 5.29881 5.64258 5.27344 5.64258C5.1905 5.64258 5.14414 5.61479 5.11987 5.59076C5.09572 5.56683 5.07031 5.52392 5.07031 5.44922C5.07031 5.41348 5.0764 5.39444 5.08264 5.38075C5.08984 5.36496 5.10585 5.33808 5.14574 5.29772L8.44159 2.11887C8.51699 2.04722 8.56371 2.0196 8.58901 2.00813C8.60907 1.99903 8.62799 1.99414 8.66211 1.99414C8.70479 1.99414 8.72542 2.00037 8.74253 2.00813C8.764 2.01786 8.80604 2.04244 8.87498 2.11137L8.87492 2.11143L8.88142 2.11769L12.1786 5.29779C12.2232 5.34286 12.2427 5.37319 12.2516 5.39166C12.2589 5.40673 12.2637 5.42242 12.2637 5.44922C12.2637 5.51419 12.2404 5.55719 12.2108 5.5857C12.1797 5.61558 12.1274 5.64258 12.0508 5.64258C11.9864 5.64258 11.9331 5.61709 11.8996 5.57884L11.8939 5.57236L11.888 5.56609L10.4037 3.98406L10.4027 3.983L9.74841 3.28964Z" fill="white" fill-opacity="0.85" stroke="#AEAEB2"/>
</svg>
